{"title":"American.Gangster.2007.Theatrical.Cut.DVDRip.XviD-EXViD","uid":6564714,"size":1534626119,"categoryP":"video","categoryS":"movies","magnet":"?xt=urn:btih:c9898bfbaf1f826f47c626a7021987c1fecc7111&amp;dn=American.Gangster.2007.Theatrical.Cut.DVDRip.XviD-EXViD&amp;tr=udp%3A%2F%2Ftracker.openbittorrent.com%3A80&amp;tr=udp%3A%2F%2Fopen.demonii.com%3A1337&amp;tr=udp%3A%2F%2Ftracker.coppersurfer.tk%3A6969&amp;tr=udp%3A%2F%2Fexodus.desync.com%3A6969","seeders":2,"leechers":0,"uploader":"sceneline","files":110,"time":1311628958,"description":"- &lt;a href=&quot;\nhttp://www.Speed.Cd&quot; rel=&quot;nofollow&quot; target=&quot;_NEW&quot;&gt;\nhttp://www.Speed.Cd&lt;/a&gt; \n       &lt;a href=&quot;\nhttp://www.Speed.Cd&quot; rel=&quot;nofollow&quot; target=&quot;_NEW&quot;&gt;\nhttp://www.Speed.Cd&lt;/a&gt;       the fast  and The Hottest Private Tracker on the net\n\n(((--Registration will be open on june every weekend--)))\n\nPlease Seed back to make the speed Faster!!!\n\n------------------nfo--------------------------\n-                                                                                                     \n       \n     \n     \n       \n       \n     \n     \n                                         \n                                         \n                EXVID                    \n                                         \n         \n                                         \n         Filled the Archives             \n                                         \n         \n                                         \n                With:                    \n                                         \n         \n                                         \n                                    \n     E240                           \n                                    \n     SP               (C) 2009      \n                                         \n     \n     \n     \n                                                                                  \n                                                                                   \n         American.Gangster.2007.Theatrical.Cut.DVDRip.XviD-EXViD                    \n                                                                                   \n                                                                                  \n     \n                                                                                               \nEXViD aims to iNTERNAL those releases which have been lost in the archives.\nEXViD aims to PRE non-internal releases which have poor sources and are likely skipped by others. &lt;a href=&quot;\nhttp://www.imdb.com/title/tt0765429/&quot; rel=&quot;nofollow&quot; target=&quot;_NEW&quot;&gt;\nhttp://www.imdb.com/title/tt0765429/&lt;/a&gt;\nSubtitles: EN, CZ, NL, BG, GR, RO\nDate: 2011.07\n\nDirector: Ridley Scott\n\nGenres: Crime | Drama\n\nPlot:\nFollowing the death of his employer and mentor, Bumpy Johnson, Frank Lucas establishes himself\nas the number one importer of heroin in the Harlem district of Manhattan. He does so by buying\nheroin directly from the source in South East Asia and he comes up with a unique way of\nimporting the drugs into the United States. As a result, his product is superior to what is\ncurrently available on the street and his prices are lower. His alliance with the New York\nMafia ensures his position. It is also the story of a dedicated and honest policeman, Richie\nRoberts, who heads up a joint narcotics task force with the Federal government. Based on a\ntrue story.\n\nCast:\nDenzel Washington \t ... \tFrank Lucas \nRussell Crowe \t ... \tRichie Roberts \nChiwetel Ejiofor \t ... \tHuey Lucas \nJosh Brolin \t ... \tDetective Trupo \nLymari Nadal \t ... \tEva \nTed Levine \t ... \tLou Toback \nRoger Guenveur Smith \t ... \tNate \nJohn Hawkes \t ... \tFreddie Spearman \nRZA \t ... \tMoses Jones \nYul Vazquez \t ... \tAlfonso Abruzzo \nMalcolm Goodwin \t ... \tJimmy Zee \nRuby Dee \t ... \tMama Lucas \nRuben Santiago-Hudson \t ... \tDoc \nCarla Gugino \t ... \tLaurie Roberts \nSkyler Fortgang \t ... \tMichael Roberts\n\nStats:\nFormat                           : AVI\nFormat/Info                      : Audio Video Interleave\nFile size                        : 1.37 GiB\nDuration                         : 2h 30mn\nOverall bit rate                 : 1 301 Kbps\nWriting application              : Nandub v1.0rc2\nWriting library                  : Nandub build 1852/release\n\nVideo\nID                               : 0\nFormat                           : MPEG-4 Visual\nFormat profile                   : Advanced Simple@L5\nFormat settings, BVOP            : 2\nFormat settings, QPel            : No\nFormat settings, GMC             : No warppoints\nFormat settings, Matrix          : Default (H.263)\nCodec ID                         : XVID\nCodec ID/Hint                    : XviD\nDuration                         : 2h 30mn\nBit rate                         : 910 Kbps\nWidth                            : 624 pixels\nHeight                           : 336 pixels\nDisplay aspect ratio             : 1.857\nFrame rate                       : 25.000 fps\nColor space                      : YUV\nChroma subsampling               : 4:2:0\nBit depth                        : 8 bits\nScan type                        : Progressive\nCompression mode                 : Lossy\nBits/(Pixel*Frame)               : 0.174\nStream size                      : 979 MiB (70%)\nWriting library                  : XviD 64\n\nAudio\nID                               : 1\nFormat                           : AC-3\nFormat/Info                      : Audio Coding 3\nMode extension                   : CM (complete main)\nCodec ID                         : 2000\nDuration                         : 2h 30mn\nBit rate mode                    : Constant\nBit rate                         : 384 Kbps\nChannel(s)                       : 6 channels\nChannel positions                : Front: L C R, Side: L R, LFE\nSampling rate                    : 48.0 KHz\nBit depth                        : 16 bits\nCompression mode                 : Lossy\nStream size                      : 413 MiB (30%)\nAlignment                        : Aligned on interleaves\nInterleave, duration             : 96 ms (2.40 video frames)\nInterleave, preload duration     : 96 ms\n\n\n\n\nRelease notes:\nDiAMOND did the EXTENDED, this is the THEATRiCAL cut.\n\nSee http://www.movie-censorship.com/report.php?ID=4896 for differences.\n\nenjoy!\n\nLooking for:\n75TB+ Archives\nDUTCH/FLEMiSH Archives\n                                                                                                    \nGreets: CRBS EPiSODE FiCO FLS iLS KLASSiGER LiPSYNC MADE NODLABS RUNNER SPRiNTER      \n   \n\n                                                                    ASCII DONE BY XX^NFO 2oo9","torrent":{"xt":"urn:btih:c9898bfbaf1f826f47c626a7021987c1fecc7111","amp;dn":"American.Gangster.2007.Theatrical.Cut.DVDRip.XviD-EXViD","amp;tr":["udp%3A%2F%2Ftracker.openbittorrent.com%3A80","udp%3A%2F%2Fopen.demonii.com%3A1337","udp%3A%2F%2Ftracker.coppersurfer.tk%3A6969","udp%3A%2F%2Fexodus.desync.com%3A6969"],"infoHash":"c9898bfbaf1f826f47c626a7021987c1fecc7111","infoHashBuffer":{"type":"Buffer","data":[201,137,139,251,175,31,130,111,71,198,38,167,2,25,135,193,254,204,113,17]},"announce":[],"urlList":[]}}